<?xml version="1.0" encoding="iso-8859-1"?>
<!-- Generator: Adobe Illustrator 19.0.0, SVG Export Plug-In . SVG Version: 6.00 Build 0)  -->
<svg version="1.1" id="Layer_1" xmlns="http://www.w3.org/2000/svg" xmlns:xlink="http://www.w3.org/1999/xlink" x="0px" y="0px"
	 viewBox="0 0 512 512" style="enable-background:new 0 0 512 512;" xml:space="preserve">
<path style="fill:#FFFFFF;" d="M453.244,494.964l-0.336-262.119c0-121.311-86.22-216.329-196.288-216.329l-0.772,0.001l-0.838-0.001
	c-110.068,0-196.288,95.018-196.288,216.318v262.131c24.099-3.043,44.781-19.246,52.917-42.226c1.168-3.298,4.286-5.502,7.785-5.502
	s6.617,2.204,7.785,5.502c9.053,25.567,33.365,42.745,60.497,42.745s51.446-17.178,60.496-42.745
	c1.168-3.298,4.288-5.502,7.785-5.502c3.497,0,6.617,2.204,7.785,5.502c9.052,25.567,33.364,42.745,60.496,42.745
	s51.447-17.178,60.497-42.746c1.168-3.298,4.288-5.502,7.785-5.502c3.499,0,6.617,2.204,7.785,5.502
	C408.472,475.714,429.151,491.915,453.244,494.964z M212.366,240.44c-1.05,0.445-2.14,0.654-3.214,0.654
	c-3.218,0-6.276-1.893-7.608-5.043c-4.932-11.657-16.294-19.188-28.948-19.188c-12.454,0-23.746,7.366-28.768,18.768
	c-1.839,4.174-6.713,6.067-10.886,4.229c-4.173-1.839-6.067-6.712-4.228-10.886c7.659-17.389,24.884-28.626,43.882-28.626
	c19.305,0,36.638,11.49,44.159,29.271C218.532,233.818,216.567,238.664,212.366,240.44z M254.293,316.533
	c-17.303,0-31.381-14.077-31.381-31.381c0-4.561,3.696-8.258,8.258-8.258c4.562,0,8.258,3.697,8.258,8.258
	c0,8.196,6.668,14.865,14.865,14.865c8.196,0,14.865-6.668,14.865-14.865c0-4.561,3.696-8.258,8.258-8.258s8.258,3.697,8.258,8.258
	C285.673,302.455,271.596,316.533,254.293,316.533z M375.534,240.44c-1.05,0.445-2.14,0.654-3.214,0.654
	c-3.218,0-6.276-1.893-7.608-5.043c-4.932-11.657-16.294-19.188-28.949-19.188c-12.454,0-23.746,7.366-28.768,18.768
	c-1.839,4.174-6.713,6.067-10.886,4.229c-4.173-1.839-6.067-6.712-4.228-10.886c7.659-17.389,24.884-28.626,43.882-28.626
	c19.305,0,36.639,11.49,44.16,29.271C381.699,233.818,379.734,238.664,375.534,240.44z"/>
<path d="M469.769,503.124l-0.345-270.29c0-64.164-22.056-123.301-62.106-166.516C367.685,23.552,314.166,0,256.62,0l-0.772,0.001
	L255.011,0C197.47,0,143.953,23.553,104.318,66.321c-40.052,43.217-62.109,102.353-62.109,166.513v270.907
	c0,4.561,3.696,8.258,8.258,8.258c28.402,0,54.315-14.623,68.947-37.712C133.971,497.377,159.639,512,187.707,512
	c28.062,0,53.724-14.612,68.282-37.692C270.547,497.388,296.209,512,324.271,512c28.069,0,53.738-14.624,68.294-37.712
	C407.197,497.377,433.11,512,461.512,512c0.007-0.001,0.015,0,0.022,0c4.562,0,8.258-3.697,8.258-8.258
	C469.792,503.534,469.784,503.328,469.769,503.124z M392.554,447.237c-3.498,0-6.617,2.204-7.785,5.502
	c-9.052,25.567-33.366,42.745-60.499,42.745c-27.133,0-51.446-17.178-60.496-42.745c-1.168-3.298-4.288-5.502-7.785-5.502
	s-6.617,2.204-7.785,5.502c-9.053,25.567-33.365,42.745-60.497,42.745s-51.446-17.178-60.497-42.745
	c-1.168-3.298-4.288-5.502-7.785-5.502c-3.499,0-6.617,2.204-7.785,5.502c-8.136,22.979-28.817,39.182-52.917,42.226V232.834
	c-0.001-121.3,86.219-216.318,196.286-216.318l0.839,0.001l0.771-0.001c110.068,0,196.288,95.018,196.288,216.328l0.336,262.119
	c-24.093-3.049-44.772-19.25-52.906-42.225C399.17,449.441,396.052,447.237,392.554,447.237z"/>
<path d="M335.761,200.346c-18.998,0-36.222,11.236-43.882,28.626c-1.839,4.174,0.055,9.048,4.228,10.886
	c4.173,1.838,9.048-0.055,10.886-4.229c5.022-11.401,16.314-18.768,28.768-18.768c12.656,0,24.018,7.532,28.949,19.188
	c1.332,3.15,4.39,5.043,7.608,5.043c1.074,0,2.164-0.21,3.214-0.654c4.199-1.777,6.166-6.622,4.388-10.822
	C372.402,211.836,355.068,200.346,335.761,200.346z"/>
<path d="M172.595,200.346c-18.998,0-36.222,11.236-43.882,28.626c-1.839,4.174,0.055,9.048,4.228,10.886
	c4.173,1.838,9.048-0.055,10.886-4.229c5.022-11.401,16.314-18.768,28.768-18.768c12.655,0,24.017,7.532,28.948,19.188
	c1.332,3.15,4.39,5.043,7.608,5.043c1.074,0,2.164-0.21,3.214-0.654c4.199-1.777,6.166-6.622,4.388-10.822
	C209.233,211.836,191.9,200.346,172.595,200.346z"/>
<path d="M277.415,276.894c-4.562,0-8.258,3.697-8.258,8.258c0,8.196-6.668,14.865-14.865,14.865
	c-8.196,0-14.865-6.668-14.865-14.865c0-4.561-3.696-8.258-8.258-8.258c-4.562,0-8.258,3.697-8.258,8.258
	c0,17.303,14.077,31.381,31.381,31.381s31.381-14.077,31.381-31.381C285.673,280.591,281.977,276.894,277.415,276.894z"/>
<g>
</g>
<g>
</g>
<g>
</g>
<g>
</g>
<g>
</g>
<g>
</g>
<g>
</g>
<g>
</g>
<g>
</g>
<g>
</g>
<g>
</g>
<g>
</g>
<g>
</g>
<g>
</g>
<g>
</g>
</svg>
